STARTFONT 2.1
FONT -Monotype-Nimrod-Bold-I-Normal--14-140-75-75-P-94-iso8859-5
SIZE 14 75 75
FONTBOUNDINGBOX 22 19 -3 -3

STARTPROPERTIES 24
FOUNDRY "Monotype"
FAMILY_NAME "Nimrod"
WEIGHT_NAME "Bold"
SLANT "I"
SETWIDTH_NAME "Normal"
ADD_STYLE_NAME ""
PIXEL_SIZE 14
POINT_SIZE 140
RESOLUTION_X 75
RESOLUTION_Y 75
SPACING "P"
AVERAGE_WIDTH 94
CHARSET_REGISTRY "iso8859"
CHARSET_ENCODING "5"
FACE_NAME "Nimrod Bold Inclined ISO Latin Cyrillic"
_DEC_DEVICE_FONTNAMES "PS=nimrod-bin-latcyrillic"
COPYRIGHT "Copyright (c) 1994 Monotype Typography Ltd."
CAP_HEIGHT 14
X_HEIGHT 10
WEIGHT 10
QUAD_WIDTH 11
DEFAULT_CHAR 160
FONT_DESCENT 4
FONT_ASCENT 16
ENDPROPERTIES

CHARS 191

STARTCHAR space
ENCODING 32
SWIDTH 250 0
DWIDTH 4 0
BBX 0 0 0 0
BITMAP
ENDCHAR

STARTCHAR exclam
ENCODING 33
SWIDTH 375 0
DWIDTH 6 0
BBX 4 12 2 0
BITMAP
30
30
30
60
60
60
40
40
00
00
C0
C0
ENDCHAR

STARTCHAR quotedbl
ENCODING 34
SWIDTH 552 0
DWIDTH 8 0
BBX 6 5 1 7
BITMAP
6C
6C
D8
D8
90
ENDCHAR

STARTCHAR numbersign
ENCODING 35
SWIDTH 667 0
DWIDTH 10 0
BBX 9 12 1 0
BITMAP
1100
1100
1100
7F80
3300
2200
2200
2200
FF00
6600
4400
4400
ENDCHAR

STARTCHAR dollar
ENCODING 36
SWIDTH 510 0
DWIDTH 8 0
BBX 8 14 0 -2
BITMAP
04
1E
35
6B
6A
78
3C
1E
56
D6
AC
78
20
20
ENDCHAR

STARTCHAR percent
ENCODING 37
SWIDTH 1000 0
DWIDTH 15 0
BBX 13 11 1 0
BITMAP
3840
6C40
CC80
CC80
D900
7270
04D8
0998
0998
11B0
10E0
ENDCHAR

STARTCHAR ampersand
ENCODING 38
SWIDTH 927 0
DWIDTH 14 0
BBX 12 12 1 0
BITMAP
0380
06C0
0CC0
0CC0
0D80
0F00
3C70
6620
C340
C180
E390
7EE0
ENDCHAR

STARTCHAR quoteright
ENCODING 39
SWIDTH 323 0
DWIDTH 5 0
BBX 4 4 0 8
BITMAP
30
30
20
C0
ENDCHAR

STARTCHAR parenleft
ENCODING 40
SWIDTH 385 0
DWIDTH 6 0
BBX 6 15 1 -3
BITMAP
04
18
30
60
60
C0
C0
C0
C0
C0
C0
C0
60
20
10
ENDCHAR

STARTCHAR parenright
ENCODING 41
SWIDTH 385 0
DWIDTH 6 0
BBX 6 15 -1 -3
BITMAP
20
10
18
0C
0C
0C
0C
0C
0C
0C
18
18
30
60
80
ENDCHAR

STARTCHAR asterisk
ENCODING 42
SWIDTH 552 0
DWIDTH 8 0
BBX 7 7 1 5
BITMAP
18
18
C8
FE
36
D8
D8
ENDCHAR

STARTCHAR plus
ENCODING 43
SWIDTH 667 0
DWIDTH 10 0
BBX 7 7 2 1
BITMAP
10
10
10
FE
10
10
10
ENDCHAR

STARTCHAR comma
ENCODING 44
SWIDTH 323 0
DWIDTH 5 0
BBX 4 4 0 -2
BITMAP
30
30
20
C0
ENDCHAR

STARTCHAR minus
ENCODING 45
SWIDTH 667 0
DWIDTH 10 0
BBX 8 1 1 4
BITMAP
FF
ENDCHAR

STARTCHAR period
ENCODING 46
SWIDTH 323 0
DWIDTH 5 0
BBX 2 2 2 0
BITMAP
C0
C0
ENDCHAR

STARTCHAR slash
ENCODING 47
SWIDTH 552 0
DWIDTH 8 0
BBX 8 12 0 0
BITMAP
03
02
06
04
0C
08
18
10
30
20
60
C0
ENDCHAR

STARTCHAR zero
ENCODING 48
SWIDTH 562 0
DWIDTH 8 0
BBX 8 12 0 0
BITMAP
1E
33
33
63
63
63
C6
C6
C6
CC
CC
78
ENDCHAR

STARTCHAR one
ENCODING 49
SWIDTH 562 0
DWIDTH 8 0
BBX 5 12 2 0
BITMAP
08
38
18
18
30
30
30
30
60
60
60
F0
ENDCHAR

STARTCHAR two
ENCODING 50
SWIDTH 562 0
DWIDTH 8 0
BBX 8 12 0 0
BITMAP
3E
67
73
23
03
06
0C
18
32
42
FE
FC
ENDCHAR

STARTCHAR three
ENCODING 51
SWIDTH 562 0
DWIDTH 8 0
BBX 7 12 0 0
BITMAP
3C
4E
66
26
0C
38
18
0C
4C
CC
9C
78
ENDCHAR

STARTCHAR four
ENCODING 52
SWIDTH 562 0
DWIDTH 8 0
BBX 7 12 0 0
BITMAP
02
06
0E
16
26
2C
4C
8C
FE
18
18
3C
ENDCHAR

STARTCHAR five
ENCODING 53
SWIDTH 562 0
DWIDTH 8 0
BBX 8 12 0 0
BITMAP
1F
1E
20
20
3C
6E
06
06
46
C6
8C
78
ENDCHAR

STARTCHAR six
ENCODING 54
SWIDTH 562 0
DWIDTH 8 0
BBX 8 12 0 0
BITMAP
0E
13
31
30
60
7C
66
C6
C6
CC
CC
78
ENDCHAR

STARTCHAR seven
ENCODING 55
SWIDTH 562 0
DWIDTH 8 0
BBX 8 12 0 0
BITMAP
3F
7F
43
06
0C
18
18
30
60
60
C0
C0
ENDCHAR

STARTCHAR eight
ENCODING 56
SWIDTH 562 0
DWIDTH 8 0
BBX 8 12 0 0
BITMAP
1E
33
63
63
66
3C
66
C6
C6
C6
CC
78
ENDCHAR

STARTCHAR nine
ENCODING 57
SWIDTH 562 0
DWIDTH 8 0
BBX 8 12 0 0
BITMAP
1E
33
33
63
63
66
3E
06
0C
8C
C8
70
ENDCHAR

STARTCHAR colon
ENCODING 58
SWIDTH 323 0
DWIDTH 5 0
BBX 3 8 1 0
BITMAP
60
60
00
00
00
00
C0
C0
ENDCHAR

STARTCHAR semicolon
ENCODING 59
SWIDTH 323 0
DWIDTH 5 0
BBX 5 10 -1 -2
BITMAP
18
18
00
00
00
00
30
30
20
C0
ENDCHAR

STARTCHAR less
ENCODING 60
SWIDTH 667 0
DWIDTH 10 0
BBX 8 8 1 1
BITMAP
01
07
3C
E0
E0
3C
07
01
ENDCHAR

STARTCHAR equal
ENCODING 61
SWIDTH 667 0
DWIDTH 10 0
BBX 8 4 1 3
BITMAP
FF
00
00
FF
ENDCHAR

STARTCHAR greater
ENCODING 62
SWIDTH 667 0
DWIDTH 10 0
BBX 8 8 1 1
BITMAP
80
E0
3C
07
07
3C
E0
80
ENDCHAR

STARTCHAR question
ENCODING 63
SWIDTH 458 0
DWIDTH 7 0
BBX 6 12 2 0
BITMAP
78
DC
8C
1C
38
60
40
40
00
00
C0
C0
ENDCHAR

STARTCHAR at
ENCODING 64
SWIDTH 833 0
DWIDTH 12 0
BBX 12 15 0 -3
BITMAP
0700
18C0
2020
46A0
4D90
8D90
9990
9990
9B10
9B20
9B20
4DC0
4020
30C0
0F00
ENDCHAR

STARTCHAR A
ENCODING 65
SWIDTH 802 0
DWIDTH 11 0
BBX 12 12 -1 0
BITMAP
00C0
01C0
03C0
02C0
04C0
0CC0
0860
1FE0
1060
3060
6060
F0F0
ENDCHAR

STARTCHAR B
ENCODING 66
SWIDTH 802 0
DWIDTH 12 0
BBX 12 12 0 0
BITMAP
3FE0
1870
1830
1830
3060
3FC0
30C0
3060
6060
6060
60C0
FF80
ENDCHAR

STARTCHAR C
ENCODING 67
SWIDTH 740 0
DWIDTH 11 0
BBX 11 12 1 0
BITMAP
07C0
1860
3060
6040
6000
C000
C000
C000
C040
C080
6100
3E00
ENDCHAR

STARTCHAR D
ENCODING 68
SWIDTH 854 0
DWIDTH 13 0
BBX 13 12 0 0
BITMAP
3FE0
1830
1818
1818
3018
3018
3018
3030
6030
6060
60C0
FF00
ENDCHAR

STARTCHAR E
ENCODING 69
SWIDTH 740 0
DWIDTH 11 0
BBX 11 12 0 0
BITMAP
3FE0
1860
1840
1940
3100
3E00
3200
3200
6080
6080
6180
FF80
ENDCHAR

STARTCHAR F
ENCODING 70
SWIDTH 729 0
DWIDTH 11 0
BBX 12 12 0 0
BITMAP
3FF0
1830
1820
18A0
3080
3F00
3100
3100
6000
6000
6000
F000
ENDCHAR

STARTCHAR G
ENCODING 71
SWIDTH 854 0
DWIDTH 13 0
BBX 11 12 1 0
BITMAP
07C0
1860
3060
6040
6000
C000
C1E0
C0C0
C0C0
C180
6180
3F00
ENDCHAR

STARTCHAR H
ENCODING 72
SWIDTH 865 0
DWIDTH 13 0
BBX 13 12 0 0
BITMAP
3C78
1830
1830
1830
3060
3FE0
3060
3060
60C0
60C0
60C0
F1E0
ENDCHAR

STARTCHAR I
ENCODING 73
SWIDTH 479 0
DWIDTH 6 0
BBX 6 12 0 0
BITMAP
3C
18
18
18
30
30
30
30
60
60
60
F0
ENDCHAR

STARTCHAR J
ENCODING 74
SWIDTH 656 0
DWIDTH 10 0
BBX 10 12 0 0
BITMAP
03C0
0180
0180
0180
0300
0300
0300
0300
6600
C600
8E00
7C00
ENDCHAR

STARTCHAR K
ENCODING 75
SWIDTH 823 0
DWIDTH 12 0
BBX 13 12 0 0
BITMAP
3C78
1830
1840
1880
3100
3200
3F00
3300
6180
6180
60C0
F1E0
ENDCHAR

STARTCHAR L
ENCODING 76
SWIDTH 698 0
DWIDTH 10 0
BBX 9 12 0 0
BITMAP
3C00
1800
1800
1800
3000
3000
3000
3000
6080
6080
6180
FF80
ENDCHAR

STARTCHAR M
ENCODING 77
SWIDTH 1031 0
DWIDTH 15 0
BBX 16 12 -1 0
BITMAP
1C07
0C0E
0C0E
0C16
163C
162C
164C
17CC
2398
2318
6318
F23C
ENDCHAR

STARTCHAR N
ENCODING 78
SWIDTH 833 0
DWIDTH 12 0
BBX 14 12 -1 0
BITMAP
1C3C
0C18
0C10
0E10
1620
1620
1320
1320
2340
21C0
6180
F080
ENDCHAR

STARTCHAR O
ENCODING 79
SWIDTH 823 0
DWIDTH 12 0
BBX 11 12 1 0
BITMAP
0780
18C0
3060
6060
6060
C060
C060
C0C0
C0C0
C180
6300
3C00
ENDCHAR

STARTCHAR P
ENCODING 80
SWIDTH 771 0
DWIDTH 12 0
BBX 12 12 0 0
BITMAP
3FC0
1860
1830
1830
3030
3060
3F80
3000
6000
6000
6000
F000
ENDCHAR

STARTCHAR Q
ENCODING 81
SWIDTH 823 0
DWIDTH 12 0
BBX 11 14 1 -2
BITMAP
0780
18C0
3060
6060
6060
C060
C060
CCC0
D6C0
E380
6300
3E00
0380
00E0
ENDCHAR

STARTCHAR R
ENCODING 82
SWIDTH 823 0
DWIDTH 12 0
BBX 11 12 0 0
BITMAP
3F80
18C0
1860
1860
3060
30C0
3F00
3300
6180
6180
60C0
F0E0
ENDCHAR

STARTCHAR S
ENCODING 83
SWIDTH 667 0
DWIDTH 10 0
BBX 9 12 1 0
BITMAP
1F00
3180
6180
6100
7000
3C00
1E00
0700
4300
C300
C600
7C00
ENDCHAR

STARTCHAR T
ENCODING 84
SWIDTH 750 0
DWIDTH 11 0
BBX 12 12 0 0
BITMAP
7FF0
6630
4620
8620
8C20
0C00
0C00
0C00
1800
1800
1800
3C00
ENDCHAR

STARTCHAR U
ENCODING 85
SWIDTH 792 0
DWIDTH 12 0
BBX 12 12 1 0
BITMAP
7870
3020
3020
6020
6040
6040
6040
C080
C080
C080
6100
3E00
ENDCHAR

STARTCHAR V
ENCODING 86
SWIDTH 771 0
DWIDTH 12 0
BBX 12 12 1 0
BITMAP
F0F0
6060
6040
6080
6080
3100
3100
3200
3400
3800
1800
1000
ENDCHAR

STARTCHAR W
ENCODING 87
SWIDTH 1104 0
DWIDTH 17 0
BBX 16 12 2 0
BITMAP
F3C7
6182
6184
6184
6388
6388
3590
3DE0
38E0
30C0
30C0
2080
ENDCHAR

STARTCHAR X
ENCODING 88
SWIDTH 823 0
DWIDTH 12 0
BBX 12 12 0 0
BITMAP
78F0
3060
1840
1880
0D00
0600
0600
0E00
1300
2180
60C0
F1E0
ENDCHAR

STARTCHAR Y
ENCODING 89
SWIDTH 771 0
DWIDTH 12 0
BBX 11 12 2 0
BITMAP
F1E0
60C0
6080
3100
3100
3200
1C00
1C00
1800
1800
1800
3C00
ENDCHAR

STARTCHAR Z
ENCODING 90
SWIDTH 719 0
DWIDTH 11 0
BBX 10 12 1 0
BITMAP
1FC0
30C0
2180
2300
0600
0C00
0C00
1800
3100
6100
C300
FE00
ENDCHAR

STARTCHAR bracketleft
ENCODING 91
SWIDTH 396 0
DWIDTH 6 0
BBX 7 15 0 -3
BITMAP
1E
18
18
30
30
30
30
30
60
60
60
60
C0
C0
F0
ENDCHAR

STARTCHAR backslash
ENCODING 92
SWIDTH 552 0
DWIDTH 8 0
BBX 8 12 0 0
BITMAP
C0
60
20
30
10
18
08
0C
04
06
02
03
ENDCHAR

STARTCHAR bracketright
ENCODING 93
SWIDTH 396 0
DWIDTH 6 0
BBX 7 15 -1 -3
BITMAP
1E
06
06
0C
0C
0C
0C
18
18
18
18
18
30
30
F0
ENDCHAR

STARTCHAR asciicircum
ENCODING 94
SWIDTH 573 0
DWIDTH 9 0
BBX 7 5 1 7
BITMAP
10
38
6C
6C
C6
ENDCHAR

STARTCHAR underscore
ENCODING 95
SWIDTH 500 0
DWIDTH 8 0
BBX 8 1 0 -3
BITMAP
FF
ENDCHAR

STARTCHAR quoteleft
ENCODING 96
SWIDTH 323 0
DWIDTH 5 0
BBX 4 4 1 8
BITMAP
30
40
C0
C0
ENDCHAR

STARTCHAR a
ENCODING 97
SWIDTH 667 0
DWIDTH 10 0
BBX 9 8 1 0
BITMAP
1B80
3700
6300
6300
C600
C600
CE80
7700
ENDCHAR

STARTCHAR b
ENCODING 98
SWIDTH 635 0
DWIDTH 10 0
BBX 8 12 2 0
BITMAP
70
30
30
30
6E
73
63
63
C6
C6
CC
B8
ENDCHAR

STARTCHAR c
ENCODING 99
SWIDTH 510 0
DWIDTH 8 0
BBX 8 8 1 0
BITMAP
1E
33
62
60
C0
C0
C4
78
ENDCHAR

STARTCHAR d
ENCODING 100
SWIDTH 667 0
DWIDTH 10 0
BBX 10 12 1 0
BITMAP
01C0
00C0
00C0
0180
1980
3580
6300
6300
C300
C600
CE80
7700
ENDCHAR

STARTCHAR e
ENCODING 101
SWIDTH 500 0
DWIDTH 8 0
BBX 8 8 0 0
BITMAP
1E
33
63
66
F8
C0
C4
78
ENDCHAR

STARTCHAR f
ENCODING 102
SWIDTH 406 0
DWIDTH 6 0
BBX 12 14 -3 -3
BITMAP
00E0
01B0
0310
0300
0F80
0600
0600
0600
0C00
0C00
0C00
4800
D800
7000
ENDCHAR

STARTCHAR g
ENCODING 103
SWIDTH 625 0
DWIDTH 9 0
BBX 10 11 0 -3
BITMAP
0FC0
1980
3180
3300
1E00
6000
7E00
3F00
6300
C200
7C00
ENDCHAR

STARTCHAR h
ENCODING 104
SWIDTH 677 0
DWIDTH 10 0
BBX 9 12 1 0
BITMAP
3800
1800
1800
3000
3600
3B00
7300
6300
6600
C600
C680
C300
ENDCHAR

STARTCHAR i
ENCODING 105
SWIDTH 396 0
DWIDTH 6 0
BBX 5 12 1 0
BITMAP
18
18
00
00
70
30
60
60
60
C0
D0
60
ENDCHAR

STARTCHAR j
ENCODING 106
SWIDTH 396 0
DWIDTH 6 0
BBX 8 15 -2 -3
BITMAP
03
03
00
00
0E
06
06
06
0C
0C
0C
0C
58
D8
70
ENDCHAR

STARTCHAR k
ENCODING 107
SWIDTH 646 0
DWIDTH 10 0
BBX 9 12 1 0
BITMAP
3800
1800
1800
3000
3300
3580
6800
7800
6C00
CC00
CD00
C600
ENDCHAR

STARTCHAR l
ENCODING 108
SWIDTH 396 0
DWIDTH 6 0
BBX 5 12 1 0
BITMAP
38
18
18
30
30
30
60
60
60
C0
D0
60
ENDCHAR

STARTCHAR m
ENCODING 109
SWIDTH 948 0
DWIDTH 15 0
BBX 14 8 1 0
BITMAP
7670
3FB8
7318
6318
6330
C630
C634
C618
ENDCHAR

STARTCHAR n
ENCODING 110
SWIDTH 677 0
DWIDTH 10 0
BBX 9 8 1 0
BITMAP
6E00
3300
6300
6300
6600
C600
C680
C300
ENDCHAR

STARTCHAR o
ENCODING 111
SWIDTH 594 0
DWIDTH 9 0
BBX 8 8 1 0
BITMAP
1E
33
63
63
C6
C6
CC
78
ENDCHAR

STARTCHAR p
ENCODING 112
SWIDTH 646 0
DWIDTH 10 0
BBX 10 11 0 -3
BITMAP
3B80
1CC0
18C0
18C0
3180
3180
3B00
3600
6000
6000
F000
ENDCHAR

STARTCHAR q
ENCODING 113
SWIDTH 625 0
DWIDTH 9 0
BBX 8 11 1 -3
BITMAP
1D
37
63
63
C6
C6
CE
76
0C
0C
1E
ENDCHAR

STARTCHAR r
ENCODING 114
SWIDTH 552 0
DWIDTH 8 0
BBX 8 8 1 0
BITMAP
76
3B
70
60
60
C0
C0
C0
ENDCHAR

STARTCHAR s
ENCODING 115
SWIDTH 500 0
DWIDTH 8 0
BBX 7 8 1 0
BITMAP
3C
66
64
30
18
4C
CC
78
ENDCHAR

STARTCHAR t
ENCODING 116
SWIDTH 406 0
DWIDTH 6 0
BBX 5 12 1 0
BITMAP
10
10
30
30
F8
60
60
60
C0
C0
D0
60
ENDCHAR

STARTCHAR u
ENCODING 117
SWIDTH 677 0
DWIDTH 10 0
BBX 8 8 1 0
BITMAP
E3
63
63
66
C6
C6
CD
76
ENDCHAR

STARTCHAR v
ENCODING 118
SWIDTH 562 0
DWIDTH 8 0
BBX 7 8 1 0
BITMAP
E4
66
62
62
C4
C4
C8
70
ENDCHAR

STARTCHAR w
ENCODING 119
SWIDTH 865 0
DWIDTH 12 0
BBX 11 8 1 0
BITMAP
E640
6660
6620
6620
CC40
CC40
CC80
7700
ENDCHAR

STARTCHAR x
ENCODING 120
SWIDTH 625 0
DWIDTH 9 0
BBX 9 8 0 0
BITMAP
3180
5B00
1A00
1C00
1C00
2C00
6D00
C600
ENDCHAR

STARTCHAR y
ENCODING 121
SWIDTH 552 0
DWIDTH 8 0
BBX 8 11 0 -3
BITMAP
62
B3
31
31
1A
1A
1C
08
48
D0
60
ENDCHAR

STARTCHAR z
ENCODING 122
SWIDTH 542 0
DWIDTH 8 0
BBX 8 8 0 0
BITMAP
39
7E
44
08
10
22
7E
DC
ENDCHAR

STARTCHAR braceleft
ENCODING 123
SWIDTH 396 0
DWIDTH 6 0
BBX 6 15 1 -3
BITMAP
0C
18
18
30
30
30
60
80
40
60
60
C0
C0
C0
60
ENDCHAR

STARTCHAR bar
ENCODING 124
SWIDTH 542 0
DWIDTH 8 0
BBX 2 12 4 0
BITMAP
C0
C0
C0
C0
C0
C0
C0
C0
C0
C0
C0
C0
ENDCHAR

STARTCHAR braceright
ENCODING 125
SWIDTH 396 0
DWIDTH 6 0
BBX 6 15 0 -3
BITMAP
18
0C
0C
1C
18
18
08
04
18
30
30
60
60
60
C0
ENDCHAR

STARTCHAR asciitilde
ENCODING 126
SWIDTH 667 0
DWIDTH 10 0
BBX 8 2 1 4
BITMAP
7D
BE
ENDCHAR

STARTCHAR space
ENCODING 160
SWIDTH 250 0
DWIDTH 5 0
BBX 0 0 0 0
BITMAP
ENDCHAR

STARTCHAR afii10023
ENCODING 161
SWIDTH 740 0
DWIDTH 11 0
BBX 11 15 0 0
BITMAP
0880
0880
0000
3FE0
1860
1840
1940
3100
3E00
3200
3200
6080
6080
6180
FF80
ENDCHAR

STARTCHAR afii10051
ENCODING 162
SWIDTH 896 0
DWIDTH 13 0
BBX 13 12 0 0
BITMAP
7FF0
6630
4610
8610
0C00
0CE0
0D30
0E18
1818
1818
1830
7E60
ENDCHAR

STARTCHAR afii10052
ENCODING 163
SWIDTH 719 0
DWIDTH 11 0
BBX 11 16 0 0
BITMAP
00C0
0180
0200
0000
3FE0
1860
1840
1840
3000
3000
3000
3000
6000
6000
6000
F000
ENDCHAR

STARTCHAR afii10053
ENCODING 164
SWIDTH 740 0
DWIDTH 11 0
BBX 11 12 1 0
BITMAP
07C0
1860
3060
6040
6000
C000
FC00
C000
C040
C080
6100
3E00
ENDCHAR

STARTCHAR afii10054
ENCODING 165
SWIDTH 667 0
DWIDTH 10 0
BBX 9 12 1 0
BITMAP
1F00
3180
6180
6100
7000
3C00
1E00
0700
4300
C300
C600
7C00
ENDCHAR

STARTCHAR afii10055
ENCODING 166
SWIDTH 479 0
DWIDTH 6 0
BBX 6 12 0 0
BITMAP
3C
18
18
18
30
30
30
30
60
60
60
F0
ENDCHAR

STARTCHAR afii10056
ENCODING 167
SWIDTH 479 0
DWIDTH 6 0
BBX 7 15 0 0
BITMAP
66
66
00
3C
18
18
18
30
30
30
30
60
60
60
F0
ENDCHAR

STARTCHAR afii10057
ENCODING 168
SWIDTH 656 0
DWIDTH 10 0
BBX 10 12 0 0
BITMAP
03C0
0180
0180
0180
0300
0300
0300
0300
6600
C600
8E00
7C00
ENDCHAR

STARTCHAR afii10058
ENCODING 169
SWIDTH 1219 0
DWIDTH 18 0
BBX 16 12 1 0
BITMAP
07FE
0230
0230
0230
0260
046E
0473
0463
08C3
C8C6
D0CC
61F8
ENDCHAR

STARTCHAR afii10059
ENCODING 170
SWIDTH 1198 0
DWIDTH 18 0
BBX 16 12 1 0
BITMAP
3CF0
1860
1860
1860
30C0
3FFE
30C3
30C3
6183
6183
6186
FBFC
ENDCHAR

STARTCHAR afii10060
ENCODING 171
SWIDTH 917 0
DWIDTH 14 0
BBX 12 12 1 0
BITMAP
7FF0
6630
4610
8610
0C00
0DE0
0E70
0C30
1830
1860
1860
3CF0
ENDCHAR

STARTCHAR afii10061
ENCODING 172
SWIDTH 833 0
DWIDTH 12 0
BBX 13 16 0 0
BITMAP
0060
00C0
0100
0000
3E30
1878
1858
1880
3300
3F00
3300
3180
6180
60C0
60C0
F8E0
ENDCHAR

STARTCHAR hyphen
ENCODING 173
SWIDTH 323 0
DWIDTH 5 0
BBX 4 1 0 4
BITMAP
F0
ENDCHAR

STARTCHAR afii10062
ENCODING 174
SWIDTH 781 0
DWIDTH 12 0
BBX 12 16 0 0
BITMAP
0440
0440
0380
0000
7870
3020
3040
1880
1880
1900
0D00
0E00
0600
C400
C800
7000
ENDCHAR

STARTCHAR afii10145
ENCODING 175
SWIDTH 865 0
DWIDTH 13 0
BBX 13 15 0 -3
BITMAP
3C78
1830
1830
1830
3060
3060
3060
3060
60C0
60C0
60C0
FFE0
0E00
0400
0400
ENDCHAR

STARTCHAR afii10017
ENCODING 176
SWIDTH 802 0
DWIDTH 11 0
BBX 12 12 -1 0
BITMAP
00C0
01C0
03C0
02C0
04C0
0CC0
0860
1FE0
1060
3060
6060
F0F0
ENDCHAR

STARTCHAR afii10018
ENCODING 177
SWIDTH 802 0
DWIDTH 12 0
BBX 12 12 0 0
BITMAP
3FF0
1830
1820
1820
3000
3F80
30C0
30C0
60C0
60C0
6180
FF00
ENDCHAR

STARTCHAR afii10019
ENCODING 178
SWIDTH 802 0
DWIDTH 12 0
BBX 12 12 0 0
BITMAP
3FE0
1870
1830
1830
3060
3FC0
30C0
3060
6060
6060
60C0
FF80
ENDCHAR

STARTCHAR afii10020
ENCODING 179
SWIDTH 719 0
DWIDTH 11 0
BBX 11 12 1 0
BITMAP
3FE0
1860
1840
1840
3000
3000
3000
3000
6000
6000
6000
F800
ENDCHAR

STARTCHAR afii10021
ENCODING 180
SWIDTH 813 0
DWIDTH 12 0
BBX 13 14 -1 -2
BITMAP
07F8
0230
0230
0230
0260
0460
0460
0460
08C0
08C0
30C0
FFF0
C030
8010
ENDCHAR

STARTCHAR afii10022
ENCODING 181
SWIDTH 740 0
DWIDTH 11 0
BBX 11 12 0 0
BITMAP
3FE0
1860
1840
1940
3100
3E00
3200
3200
6080
6080
6180
FF80
ENDCHAR

STARTCHAR afii10024
ENCODING 182
SWIDTH 1177 0
DWIDTH 18 0
BBX 18 12 0 0
BITMAP
18F180
3C63C0
3462C0
026400
02C400
0FF800
1CC800
18CC00
318C00
318600
618600
E3C700
ENDCHAR

STARTCHAR afii10025
ENCODING 183
SWIDTH 656 0
DWIDTH 10 0
BBX 9 12 1 0
BITMAP
3E00
6300
4180
0180
0380
1F00
0600
0300
0300
8300
C600
7C00
ENDCHAR

STARTCHAR afii10026
ENCODING 184
SWIDTH 865 0
DWIDTH 13 0
BBX 13 12 0 0
BITMAP
3C78
1830
1870
18B0
3160
3260
3260
3460
68C0
70C0
60C0
F9E0
ENDCHAR

STARTCHAR afii10027
ENCODING 185
SWIDTH 865 0
DWIDTH 13 0
BBX 13 16 0 0
BITMAP
0440
0440
0380
0000
3C78
1830
1870
18B0
3160
3260
3260
3460
68C0
70C0
60C0
F9E0
ENDCHAR

STARTCHAR afii10028
ENCODING 186
SWIDTH 844 0
DWIDTH 13 0
BBX 13 12 0 0
BITMAP
3C30
1878
1898
1880
3100
3E00
3300
3300
6180
6180
60C0
F0E0
ENDCHAR

STARTCHAR afii10029
ENCODING 187
SWIDTH 865 0
DWIDTH 13 0
BBX 13 12 0 0
BITMAP
07F8
0230
0230
0230
0260
0460
0460
0460
08C0
C8C0
D0C0
61E0
ENDCHAR

STARTCHAR afii10030
ENCODING 188
SWIDTH 1031 0
DWIDTH 15 0
BBX 16 12 -1 0
BITMAP
1C07
0C0E
0C0E
0C16
163C
162C
164C
17CC
2398
2318
6318
F23C
ENDCHAR

STARTCHAR afii10031
ENCODING 189
SWIDTH 865 0
DWIDTH 13 0
BBX 13 12 0 0
BITMAP
3C78
1830
1830
1830
3060
3FE0
3060
3060
60C0
60C0
60C0
F1E0
ENDCHAR

STARTCHAR afii10032
ENCODING 190
SWIDTH 823 0
DWIDTH 12 0
BBX 11 12 1 0
BITMAP
0780
18C0
3060
6060
6060
C060
C060
C0C0
C0C0
C180
6300
3C00
ENDCHAR

STARTCHAR afii10033
ENCODING 191
SWIDTH 865 0
DWIDTH 13 0
BBX 13 12 0 0
BITMAP
3FF8
1830
1830
1830
3060
3060
3060
3060
60C0
60C0
60C0
F1E0
ENDCHAR

STARTCHAR afii10034
ENCODING 192
SWIDTH 771 0
DWIDTH 12 0
BBX 12 12 0 0
BITMAP
3FC0
1860
1830
1830
3030
3060
3F80
3000
6000
6000
6000
F000
ENDCHAR

STARTCHAR afii10035
ENCODING 193
SWIDTH 740 0
DWIDTH 11 0
BBX 11 12 1 0
BITMAP
07C0
1860
3060
6040
6000
C000
C000
C000
C040
C080
6100
3E00
ENDCHAR

STARTCHAR afii10036
ENCODING 194
SWIDTH 750 0
DWIDTH 11 0
BBX 12 12 0 0
BITMAP
7FF0
6630
4620
8620
8C20
0C00
0C00
0C00
1800
1800
1800
3C00
ENDCHAR

STARTCHAR afii10037
ENCODING 195
SWIDTH 781 0
DWIDTH 12 0
BBX 12 12 0 0
BITMAP
7870
3020
3040
1880
1880
1900
0D00
0E00
0600
C400
C800
7000
ENDCHAR

STARTCHAR afii10038
ENCODING 196
SWIDTH 990 0
DWIDTH 15 0
BBX 12 12 1 0
BITMAP
07C0
0300
1FE0
3330
6630
C630
C630
C660
6CC0
3F80
0C00
1E00
ENDCHAR

STARTCHAR afii10039
ENCODING 197
SWIDTH 823 0
DWIDTH 12 0
BBX 12 12 0 0
BITMAP
78F0
3060
1840
1880
0D00
0600
0600
0E00
1300
2180
60C0
F1E0
ENDCHAR

STARTCHAR afii10040
ENCODING 198
SWIDTH 865 0
DWIDTH 13 0
BBX 13 15 0 -3
BITMAP
3C78
1830
1830
1830
3060
3060
3060
3060
60C0
60C0
60C0
FFE0
0060
0020
0020
ENDCHAR

STARTCHAR afii10041
ENCODING 199
SWIDTH 823 0
DWIDTH 12 0
BBX 11 12 1 0
BITMAP
F1E0
60C0
60C0
C0C0
C180
C380
C580
7980
0300
0300
0300
0780
ENDCHAR

STARTCHAR afii10042
ENCODING 200
SWIDTH 1240 0
DWIDTH 18 0
BBX 18 12 0 0
BITMAP
3CFBC0
186180
186180
186180
30C300
30C300
30C300
30C300
618600
618600
618600
FFFF00
ENDCHAR

STARTCHAR afii10043
ENCODING 201
SWIDTH 1240 0
DWIDTH 18 0
BBX 18 15 0 -3
BITMAP
3CFBC0
186180
186180
186180
30C300
30C300
30C300
30C300
618600
618600
618600
FFFF00
000300
000100
000100
ENDCHAR

STARTCHAR afii10044
ENCODING 202
SWIDTH 938 0
DWIDTH 14 0
BBX 11 12 2 0
BITMAP
FE00
CC00
8C00
8C00
1800
1800
1FC0
1860
3060
3060
30C0
7F80
ENDCHAR

STARTCHAR afii10045
ENCODING 203
SWIDTH 1240 0
DWIDTH 19 0
BBX 18 12 1 0
BITMAP
3C03C0
180180
180180
180180
300300
300300
3F8300
30C300
60C600
60C600
618600
FF0F00
ENDCHAR

STARTCHAR afii10046
ENCODING 204
SWIDTH 802 0
DWIDTH 12 0
BBX 11 12 0 0
BITMAP
FF80
CC00
8C00
8C00
1800
1800
1FC0
1860
3060
3060
30C0
7F80
ENDCHAR

STARTCHAR afii10047
ENCODING 205
SWIDTH 740 0
DWIDTH 11 0
BBX 11 12 0 0
BITMAP
1F80
30C0
2060
2060
0060
0060
07E0
00C0
00C0
8180
C300
3C00
ENDCHAR

STARTCHAR afii10048
ENCODING 206
SWIDTH 1135 0
DWIDTH 17 0
BBX 17 12 0 0
BITMAP
3C1E00
186300
18C180
198180
318180
330180
3F0180
330300
630300
630600
618C00
F0F000
ENDCHAR

STARTCHAR afii10049
ENCODING 207
SWIDTH 844 0
DWIDTH 13 0
BBX 13 12 0 0
BITMAP
07F8
1830
3030
3030
3060
1860
0FE0
1860
30C0
30C0
60C0
E1E0
ENDCHAR

STARTCHAR afii10065
ENCODING 208
SWIDTH 667 0
DWIDTH 10 0
BBX 9 8 1 0
BITMAP
1B80
3700
6300
6300
C600
C600
CE80
7700
ENDCHAR

STARTCHAR afii10066
ENCODING 209
SWIDTH 594 0
DWIDTH 9 0
BBX 10 11 1 0
BITMAP
0F40
1980
3000
3E00
7300
6300
6300
C600
C600
CC00
7800
ENDCHAR

STARTCHAR afii10067
ENCODING 210
SWIDTH 563 0
DWIDTH 8 0
BBX 8 8 1 0
BITMAP
1E
33
63
66
FC
C6
C6
7C
ENDCHAR

STARTCHAR afii10068
ENCODING 211
SWIDTH 500 0
DWIDTH 8 0
BBX 7 8 1 0
BITMAP
3C
46
06
1C
70
C0
C4
78
ENDCHAR

STARTCHAR afii10069
ENCODING 212
SWIDTH 594 0
DWIDTH 9 0
BBX 8 11 1 0
BITMAP
1C
06
03
1F
33
63
63
C6
C6
CC
78
ENDCHAR

STARTCHAR afii10070
ENCODING 213
SWIDTH 500 0
DWIDTH 8 0
BBX 8 8 0 0
BITMAP
1E
33
63
66
F8
C0
C4
78
ENDCHAR

STARTCHAR afii10072
ENCODING 214
SWIDTH 1146 0
DWIDTH 17 0
BBX 17 8 0 0
BITMAP
1CC700
26CD80
06D980
07F800
0DB000
CDB000
D9B200
719C00
ENDCHAR

STARTCHAR afii10073
ENCODING 215
SWIDTH 542 0
DWIDTH 8 0
BBX 8 8 0 0
BITMAP
1E
23
03
1E
0C
C6
C6
7C
ENDCHAR

STARTCHAR afii10074
ENCODING 216
SWIDTH 677 0
DWIDTH 10 0
BBX 8 8 1 0
BITMAP
E3
63
63
66
C6
C6
CD
76
ENDCHAR

STARTCHAR afii10075
ENCODING 217
SWIDTH 677 0
DWIDTH 10 0
BBX 8 12 1 0
BITMAP
22
22
1C
00
E3
63
63
66
C6
C6
CD
76
ENDCHAR

STARTCHAR afii10076
ENCODING 218
SWIDTH 646 0
DWIDTH 10 0
BBX 9 8 1 0
BITMAP
E380
6580
6400
7800
DC00
CC00
C600
C700
ENDCHAR

STARTCHAR afii10077
ENCODING 219
SWIDTH 708 0
DWIDTH 11 0
BBX 10 8 1 0
BITMAP
1FC0
0980
0980
0980
1300
D300
D340
6180
ENDCHAR

STARTCHAR afii10078
ENCODING 220
SWIDTH 948 0
DWIDTH 14 0
BBX 14 8 0 0
BITMAP
1E0C
071C
0B38
0B58
0B98
1330
D334
E218
ENDCHAR

STARTCHAR afii10079
ENCODING 221
SWIDTH 688 0
DWIDTH 10 0
BBX 9 8 1 0
BITMAP
E300
6300
6300
7F00
C600
C600
C680
C300
ENDCHAR

STARTCHAR afii10080
ENCODING 222
SWIDTH 594 0
DWIDTH 9 0
BBX 8 8 1 0
BITMAP
1E
33
63
63
C6
C6
CC
78
ENDCHAR

STARTCHAR afii10081
ENCODING 223
SWIDTH 677 0
DWIDTH 10 0
BBX 9 8 1 0
BITMAP
6E00
3300
6300
6300
6600
C600
C680
C300
ENDCHAR

STARTCHAR afii10082
ENCODING 224
SWIDTH 646 0
DWIDTH 10 0
BBX 10 11 0 -3
BITMAP
3B80
1CC0
18C0
18C0
3180
3180
3B00
3600
6000
6000
F000
ENDCHAR

STARTCHAR afii10083
ENCODING 225
SWIDTH 510 0
DWIDTH 8 0
BBX 8 8 1 0
BITMAP
1E
33
62
60
C0
C0
C4
78
ENDCHAR

STARTCHAR afii10084
ENCODING 226
SWIDTH 958 0
DWIDTH 15 0
BBX 14 8 1 0
BITMAP
7670
3FB8
7318
6318
6330
C630
C634
C618
ENDCHAR

STARTCHAR afii10085
ENCODING 227
SWIDTH 531 0
DWIDTH 8 0
BBX 8 11 0 -3
BITMAP
62
B3
31
31
1A
1A
1C
08
48
D0
60
ENDCHAR

STARTCHAR afii10086
ENCODING 228
SWIDTH 833 0
DWIDTH 12 0
BBX 12 15 0 -3
BITMAP
00E0
01B0
0180
0300
3B60
67B0
6630
C630
C630
CC60
DE60
6DC0
0C00
D800
7000
ENDCHAR

STARTCHAR afii10087
ENCODING 229
SWIDTH 615 0
DWIDTH 9 0
BBX 9 8 0 0
BITMAP
3180
5B00
1A00
1C00
1C00
2C00
6D00
C600
ENDCHAR

STARTCHAR afii10088
ENCODING 230
SWIDTH 677 0
DWIDTH 10 0
BBX 8 11 1 -3
BITMAP
E3
63
63
66
C6
C6
CD
77
01
03
06
ENDCHAR

STARTCHAR afii10089
ENCODING 231
SWIDTH 646 0
DWIDTH 10 0
BBX 8 8 1 0
BITMAP
63
63
C6
EE
76
0C
0D
06
ENDCHAR

STARTCHAR afii10090
ENCODING 232
SWIDTH 948 0
DWIDTH 14 0
BBX 14 8 0 0
BITMAP
E318
6318
6318
6318
C630
C630
EF74
73B8
ENDCHAR

STARTCHAR afii10091
ENCODING 233
SWIDTH 948 0
DWIDTH 14 0
BBX 14 11 0 -3
BITMAP
E318
6318
6318
6318
C630
C630
EF74
73B8
0008
0018
0030
ENDCHAR

STARTCHAR afii10092
ENCODING 234
SWIDTH 646 0
DWIDTH 10 0
BBX 9 8 1 0
BITMAP
6800
B800
1800
1F00
1980
3180
3300
1E00
ENDCHAR

STARTCHAR afii10093
ENCODING 235
SWIDTH 917 0
DWIDTH 14 0
BBX 12 8 1 0
BITMAP
E0E0
6060
6060
7C60
66C0
C6C0
CCD0
7860
ENDCHAR

STARTCHAR afii10094
ENCODING 236
SWIDTH 604 0
DWIDTH 9 0
BBX 7 8 1 0
BITMAP
E0
60
60
7C
66
C6
CC
78
ENDCHAR

STARTCHAR afii10095
ENCODING 237
SWIDTH 521 0
DWIDTH 8 0
BBX 8 8 0 0
BITMAP
1E
23
03
1F
06
C6
CC
78
ENDCHAR

STARTCHAR afii10096
ENCODING 238
SWIDTH 885 0
DWIDTH 13 0
BBX 12 8 1 0
BITMAP
71E0
3330
6630
7E30
6C60
CC60
CCC0
C780
ENDCHAR

STARTCHAR afii10097
ENCODING 239
SWIDTH 667 0
DWIDTH 10 0
BBX 9 8 1 0
BITMAP
3F00
6300
6300
3300
3E00
6600
6680
C300
ENDCHAR

STARTCHAR afii61352
ENCODING 240
SWIDTH 1115 0
DWIDTH 17 0
BBX 18 12 -1 0
BITMAP
0F0700
070B00
070800
058B80
0996C0
099CC0
09DCC0
08DD80
10E700
10E000
D06000
E06F00
ENDCHAR

STARTCHAR afii10071
ENCODING 241
SWIDTH 500 0
DWIDTH 8 0
BBX 8 11 0 0
BITMAP
33
33
00
1E
33
63
66
F8
C0
C4
78
ENDCHAR

STARTCHAR afii10099
ENCODING 242
SWIDTH 635 0
DWIDTH 10 0
BBX 8 15 1 -3
BITMAP
38
18
7F
30
36
3B
73
63
66
C6
C6
CC
0C
18
30
ENDCHAR

STARTCHAR afii10100
ENCODING 243
SWIDTH 563 0
DWIDTH 8 0
BBX 8 12 0 0
BITMAP
06
0C
10
00
7F
33
31
30
60
60
60
F0
ENDCHAR

STARTCHAR afii10101
ENCODING 244
SWIDTH 510 0
DWIDTH 8 0
BBX 8 8 0 0
BITMAP
1E
33
63
78
C0
C0
C4
78
ENDCHAR

STARTCHAR afii10102
ENCODING 245
SWIDTH 500 0
DWIDTH 8 0
BBX 7 8 1 0
BITMAP
3C
66
64
30
18
4C
CC
78
ENDCHAR

STARTCHAR afii10103
ENCODING 246
SWIDTH 396 0
DWIDTH 6 0
BBX 5 12 1 0
BITMAP
18
18
00
00
70
30
60
60
60
C0
D0
60
ENDCHAR

STARTCHAR afii10104
ENCODING 247
SWIDTH 396 0
DWIDTH 6 0
BBX 6 11 1 0
BITMAP
CC
CC
00
70
30
60
60
60
C0
D0
60
ENDCHAR

STARTCHAR afii10105
ENCODING 248
SWIDTH 396 0
DWIDTH 6 0
BBX 8 15 -2 -3
BITMAP
03
03
00
00
0E
06
06
06
0C
0C
0C
0C
58
D8
70
ENDCHAR

STARTCHAR afii10106
ENCODING 249
SWIDTH 969 0
DWIDTH 15 0
BBX 13 8 1 0
BITMAP
1FC0
0980
0980
09F0
1198
D318
D330
61E0
ENDCHAR

STARTCHAR afii10107
ENCODING 250
SWIDTH 917 0
DWIDTH 14 0
BBX 11 8 2 0
BITMAP
E700
6600
6600
7FC0
C660
CC60
CCC0
C780
ENDCHAR

STARTCHAR afii10108
ENCODING 251
SWIDTH 677 0
DWIDTH 10 0
BBX 9 12 1 0
BITMAP
3800
1800
7F00
3000
3600
3B00
7300
6300
6600
C600
C680
C300
ENDCHAR

STARTCHAR afii10109
ENCODING 252
SWIDTH 646 0
DWIDTH 10 0
BBX 9 12 1 0
BITMAP
0600
0C00
1000
0000
E380
6580
6400
7800
DC00
CC00
C600
C700
ENDCHAR

STARTCHAR section
ENCODING 253
SWIDTH 552 0
DWIDTH 8 0
BBX 9 14 0 -3
BITMAP
0F00
1980
1980
0C00
3E00
6600
6700
7300
3300
3E00
1800
CC00
CC00
7800
ENDCHAR

STARTCHAR afii10110
ENCODING 254
SWIDTH 531 0
DWIDTH 8 0
BBX 8 15 0 -3
BITMAP
11
11
0E
00
62
B3
31
31
1A
1A
1C
08
48
D0
60
ENDCHAR

STARTCHAR afii10193
ENCODING 255
SWIDTH 677 0
DWIDTH 10 0
BBX 8 11 1 -3
BITMAP
E3
63
63
66
C6
C6
CD
76
20
60
40
ENDCHAR
ENDFONT
